<svg width="32" height="32" viewBox="0 0 32 32" fill="none" xmlns="http://www.w3.org/2000/svg">
<path d="M24 31.4921V23C24 15.8573 20.9434 9.96384 16.9943 9.10708C16.9981 9.0719 17 9.03617 17 9C17 8.96318 16.998 8.92684 16.9941 8.89105C18.7223 8.5043 20 7.13271 20 5.5C20 3.567 18.2091 2 16 2C13.7909 2 12 3.567 12 5.5C12 7.13271 13.2777 8.5043 15.0059 8.89105C15.002 8.92684 15 8.96318 15 9C15 9.03617 15.0019 9.0719 15.0057 9.10708C11.0566 9.96384 8 15.8573 8 23V31.4921C8 31.4921 9.19649 30.8843 10.4327 30.3739C10.7947 30.2245 11.1602 30.0833 11.5 29.9683C13 29.4603 13.5 29.4603 16 29.4603C18.5 29.4603 19 29.4603 20.5 29.9683C20.8398 30.0833 21.2053 30.2245 21.5673 30.3739C22.8035 30.8843 24 31.4921 24 31.4921Z" fill="#B8E5A1"/>
<path d="M16 0C12.134 0 9 2.72893 9 6.09524C9 6.95793 9.20583 7.77877 9.57706 8.52254C3.78946 10.5681 3 20.0944 3 26.4127C3 27.9365 3 29.9683 4 30.9841C5 32 5.5 32 6.5 32C7.5 32 8 31.4921 8 31.4921V23C8 15.8573 11.0566 9.96384 15.0057 9.10708C15.0019 9.0719 15 9.03617 15 9C15 8.96318 15.002 8.92684 15.0059 8.89105C13.2777 8.5043 12 7.13271 12 5.5C12 3.567 13.7909 2 16 2C18.2091 2 20 3.567 20 5.5C20 7.13271 18.7223 8.5043 16.9941 8.89105C16.998 8.92684 17 8.96318 17 9C17 9.03617 16.9981 9.0719 16.9943 9.10708C20.9434 9.96384 24 15.8573 24 23V31.4921C24 31.4921 24.5 32 25.5 32C26.5 32 27 32 28 30.9841C29 29.9683 29 27.9365 29 26.4127C29 20.0944 28.2105 10.5681 22.4229 8.52254C22.7942 7.77877 23 6.95793 23 6.09524C23 2.72893 19.866 0 16 0Z" fill="#2C6041"/>
<path d="M21 15H18V20H11C9.34315 20 8 21.3431 8 23C8 24.6569 9.34315 26 11 26H20C21.6569 26 23 24.6569 23 23C23 21.6938 22.1652 20.5825 21 20.1707V15Z" fill="black"/>
<circle cx="19.5" cy="13.5" r="2.75" fill="#FFB92A"/>
<ellipse cx="11.616" cy="21.5" rx="1" ry="1.5" transform="rotate(30 11.616 21.5)" fill="#FFB92A"/>
<path d="M16 0C12.134 0 9 2.72893 9 6.09524C9 6.95793 9.20583 7.77877 9.57706 8.52254C3.78946 10.5681 3 20.0944 3 26.4127C3 27.9365 3 29.9683 4 30.9841C5 32 5.5 32 6.5 32C7.5 32 8 31.4921 8 31.4921V23C8 15.8573 11.0566 9.96384 15.0057 9.10708C15.0019 9.0719 15 9.03617 15 9C15 8.96318 15.002 8.92684 15.0059 8.89105C13.2777 8.5043 12 7.13271 12 5.5C12 3.567 13.7909 2 16 2C18.2091 2 20 3.567 20 5.5C20 7.13271 18.7223 8.5043 16.9941 8.89105C16.998 8.92684 17 8.96318 17 9C17 9.03617 16.9981 9.0719 16.9943 9.10708C20.9434 9.96384 24 15.8573 24 23V31.4921C24 31.4921 24.5 32 25.5 32C26.5 32 27 32 28 30.9841C29 29.9683 29 27.9365 29 26.4127C29 20.0944 28.2105 10.5681 22.4229 8.52254C22.7942 7.77877 23 6.95793 23 6.09524C23 2.72893 19.866 0 16 0Z" fill="#738F69"/>
<ellipse cx="14.616" cy="21.5" rx="1" ry="1.5" transform="rotate(30 14.616 21.5)" fill="#FFB92A"/>
</svg>
